<svg width="868" height="180" viewBox="0 0 868 180" fill="none" xmlns="http://www.w3.org/2000/svg">
    <path d="M569.778 82.1884L554.034 130.812H547.266C546.434 130.812 545.858 130.268 545.538 129.18L534.786 96.2044C534.53 95.4684 534.322 94.7324 534.162 93.9964C534.002 93.2284 533.842 92.4764 533.682 91.7404C533.522 92.4764 533.362 93.2284 533.202 93.9964C533.042 94.7324 532.834 95.4844 532.578 96.2524L521.634 129.18C521.346 130.268 520.706 130.812 519.714 130.812H513.282L497.538 82.1884H504.258C504.93 82.1884 505.49 82.3644 505.938 82.7164C506.418 83.0684 506.738 83.4844 506.898 83.9644L516.21 115.26C516.754 117.564 517.186 119.74 517.506 121.788C517.794 120.732 518.082 119.66 518.37 118.572C518.69 117.484 519.026 116.38 519.378 115.26L529.65 83.7724C529.81 83.2924 530.082 82.8924 530.466 82.5724C530.882 82.2524 531.378 82.0924 531.954 82.0924H535.698C536.338 82.0924 536.866 82.2524 537.282 82.5724C537.698 82.8924 537.986 83.2924 538.146 83.7724L548.178 115.26C548.53 116.38 548.85 117.484 549.138 118.572C549.426 119.66 549.698 120.732 549.954 121.788C550.114 120.732 550.306 119.676 550.53 118.62C550.786 117.532 551.058 116.412 551.346 115.26L560.85 83.9644C561.01 83.4524 561.314 83.0364 561.762 82.7164C562.21 82.3644 562.738 82.1884 563.346 82.1884H569.778Z"
          fill="white"/>
    <path d="M587.121 82.1884V130.812H578.577V82.1884H587.121ZM588.945 66.9244C588.945 67.7564 588.769 68.5404 588.417 69.2764C588.097 69.9804 587.649 70.6204 587.073 71.1964C586.529 71.7404 585.873 72.1724 585.105 72.4924C584.369 72.8124 583.585 72.9724 582.753 72.9724C581.921 72.9724 581.137 72.8124 580.401 72.4924C579.697 72.1724 579.073 71.7404 578.529 71.1964C577.985 70.6204 577.553 69.9804 577.233 69.2764C576.913 68.5404 576.753 67.7564 576.753 66.9244C576.753 66.0924 576.913 65.3084 577.233 64.5724C577.553 63.8044 577.985 63.1484 578.529 62.6044C579.073 62.0284 579.697 61.5804 580.401 61.2604C581.137 60.9404 581.921 60.7804 582.753 60.7804C583.585 60.7804 584.369 60.9404 585.105 61.2604C585.873 61.5804 586.529 62.0284 587.073 62.6044C587.649 63.1484 588.097 63.8044 588.417 64.5724C588.769 65.3084 588.945 66.0924 588.945 66.9244Z"
          fill="white"/>
    <path d="M616.087 131.58C612.247 131.58 609.287 130.508 607.207 128.364C605.159 126.22 604.135 123.132 604.135 119.1V89.3404H598.279C597.767 89.3404 597.335 89.1964 596.983 88.9084C596.631 88.5884 596.455 88.1084 596.455 87.4684V84.0604L604.423 83.0524L606.391 68.0284C606.487 67.5484 606.695 67.1644 607.015 66.8764C607.367 66.5564 607.815 66.3964 608.359 66.3964H612.679V83.1484H626.743V89.3404H612.679V118.524C612.679 120.572 613.175 122.092 614.167 123.084C615.159 124.076 616.439 124.572 618.007 124.572C618.903 124.572 619.671 124.46 620.311 124.236C620.983 123.98 621.559 123.708 622.039 123.42C622.519 123.132 622.919 122.876 623.239 122.652C623.591 122.396 623.895 122.268 624.151 122.268C624.599 122.268 624.999 122.54 625.351 123.084L627.847 127.164C626.375 128.54 624.599 129.628 622.519 130.428C620.439 131.196 618.295 131.58 616.087 131.58Z"
          fill="white"/>
    <path d="M644.157 88.6684C646.237 86.4604 648.541 84.7004 651.069 83.3884C653.597 82.0764 656.509 81.4204 659.805 81.4204C662.461 81.4204 664.797 81.8684 666.813 82.7644C668.861 83.6284 670.557 84.8764 671.901 86.5084C673.277 88.1084 674.317 90.0444 675.021 92.3164C675.725 94.5884 676.077 97.1004 676.077 99.8524V130.812H667.485V99.8524C667.485 96.1724 666.637 93.3244 664.941 91.3084C663.277 89.2604 660.733 88.2364 657.309 88.2364C654.781 88.2364 652.413 88.8444 650.205 90.0604C648.029 91.2764 646.013 92.9244 644.157 95.0044V130.812H635.565V60.1084H644.157V88.6684Z"
          fill="white"/>
    <path fill-rule="evenodd" clip-rule="evenodd"
          d="M389.973 140.305L364.667 114.999L364.54 115.126L354 104.586L354.127 104.459L354 104.332L364.54 93.7926L364.667 93.9197L389.973 68.6133L400.513 79.1529L375.206 104.459L400.513 129.766L389.973 140.305ZM421.69 68.6146L446.997 93.921L447.124 93.7939L457.663 104.333L457.536 104.461L457.663 104.588L447.124 115.127L446.997 115L421.69 140.307L411.151 129.767L436.457 104.461L411.151 79.1542L421.69 68.6146Z"
          fill="white"/>
    <path d="M734.918 59.6736C722.962 63.5504 715.324 73.0763 714.217 85.3714C712.999 98.5525 720.637 113.949 733.922 125.247C742.667 132.668 762.926 146.625 764.808 146.625C766.8 146.625 787.391 132.447 795.694 125.358C816.949 107.192 821.931 81.1623 806.654 66.8734C800.343 60.8921 796.137 59.2306 786.948 59.2306C777.981 59.2306 773.553 60.8921 767.908 66.2088L764.808 69.0888L761.819 66.2088C760.048 64.6581 756.948 62.4428 754.845 61.4459C750.638 59.2306 739.125 58.2337 734.918 59.6736Z"
          fill="#E71818"/>
</svg>
